<?xml version="1.0" encoding="UTF-8"?>
<svg version="1.1" xmlns="http://www.w3.org/2000/svg" width="512" height="512">
<path d="M0 0 C168.96 0 337.92 0 512 0 C512 168.96 512 337.92 512 512 C343.04 512 174.08 512 0 512 C0 343.04 0 174.08 0 0 Z " fill="#000000" transform="translate(0,0)"/>
<path d="M0 0 C0.34774574 3.18579965 0.30172317 4.58604164 -1.6171875 7.21875 C-2.36226563 7.9715625 -3.10734375 8.724375 -3.875 9.5 C-7.87764096 13.72708811 -11.46616285 18.10010148 -14.97265625 22.74438477 C-19.02607455 28.08788138 -23.26022814 33.27561137 -27.53417969 38.44384766 C-29.94066442 41.37364261 -32.22569281 44.26873716 -34.2578125 47.47265625 C-34.83273437 48.30667969 -35.40765625 49.14070313 -36 50 C-36.66 50 -37.32 50 -38 50 C-38.2371875 50.53109375 -38.474375 51.0621875 -38.71875 51.609375 C-40.37378384 54.69742595 -42.40548128 57.4528472 -44.5 60.25 C-44.90347656 60.80429688 -45.30695313 61.35859375 -45.72265625 61.9296875 C-46.76450171 63.32569165 -47.87745412 64.66802392 -49 66 C-49.66 66 -50.32 66 -51 66 C-51.268125 66.57234375 -51.53625 67.1446875 -51.8125 67.734375 C-53.04132636 70.07884634 -54.42522176 72.12404938 -56 74.25 C-56.515625 74.95640625 -57.03125 75.6628125 -57.5625 76.390625 C-58.2740625 77.18726562 -58.2740625 77.18726562 -59 78 C-59.66 78 -60.32 78 -61 78 C-61.23589844 78.70898438 -61.47179687 79.41796875 -61.71484375 80.1484375 C-63.22926336 83.50869985 -65.15804701 85.83297477 -67.5625 88.625 C-68.46792728 89.68709154 -69.37286498 90.7496006 -70.27734375 91.8125 C-70.73351074 92.34488281 -71.18967773 92.87726563 -71.65966797 93.42578125 C-78.85502594 101.87672264 -85.80895651 110.56803233 -92.59375 119.3515625 C-97.731059 125.98505124 -103.00156278 132.31140655 -108.7109375 138.46484375 C-112.03166147 142.14257388 -115.02495018 146.04120037 -118 150 C-119.28617991 151.70331934 -120.59818376 153.39050729 -122 155 C-122.66 155 -123.32 155 -124 155 C-124.24621094 155.56460938 -124.49242187 156.12921875 -124.74609375 156.7109375 C-126.21406905 159.39079272 -127.9935669 161.37958803 -130.0625 163.625 C-132.85780458 166.58789167 -132.85780458 166.58789167 -135 170 C-135.66 170 -136.32 170 -137 170 C-137.26554688 170.58523437 -137.53109375 171.17046875 -137.8046875 171.7734375 C-139.03477693 174.06478055 -140.37306055 175.71008944 -142.125 177.625 C-145.72723758 181.6274862 -149.02558186 185.82119126 -152.30078125 190.09375 C-152.86152344 190.7228125 -153.42226562 191.351875 -154 192 C-154.66 192 -155.32 192 -156 192 C-156.268125 192.57234375 -156.53625 193.1446875 -156.8125 193.734375 C-158.04132636 196.07884634 -159.42522176 198.12404938 -161 200.25 C-161.515625 200.95640625 -162.03125 201.6628125 -162.5625 202.390625 C-163.036875 202.92171875 -163.51125 203.4528125 -164 204 C-164.66 204 -165.32 204 -166 204 C-166.22558594 204.53367188 -166.45117188 205.06734375 -166.68359375 205.6171875 C-168.4316215 208.78127333 -170.71137579 211.40211854 -173.0625 214.125 C-173.55274658 214.69903564 -174.04299316 215.27307129 -174.5480957 215.86450195 C-178.24083718 220.17000753 -182.03501959 224.37749898 -185.859375 228.56640625 C-188.85787625 231.97528632 -191.62120554 235.55309818 -194.37109375 239.1640625 C-195.17740234 240.07285156 -195.17740234 240.07285156 -196 241 C-196.66 241 -197.32 241 -198 241 C-198.268125 241.57492187 -198.53625 242.14984375 -198.8125 242.7421875 C-203.71942577 252.07180295 -212.22253407 259.38619649 -219.65234375 266.66650391 C-223.34649736 270.29401849 -226.88286625 273.849043 -230 278 C-231.625 279.8125 -231.625 279.8125 -233 281 C-233.66 281 -234.32 281 -235 281 C-235.4021875 281.86625 -235.4021875 281.86625 -235.8125 282.75 C-237 285 -237 285 -238.5625 286.875 C-241.30861115 290.93446866 -241.12467735 295.86975703 -241.11352539 300.64337158 C-241.1134549 301.74256927 -241.1133844 302.84176697 -241.11331177 303.97427368 C-241.10814545 305.16515594 -241.10297913 306.35603821 -241.09765625 307.58300781 C-241.09541488 309.5256257 -241.09317377 311.46824359 -241.09094238 313.41086149 C-241.08757999 315.49015693 -241.08172926 317.56943212 -241.07516479 319.64871979 C-241.06161325 323.9847846 -241.0557426 328.3208392 -241.05102539 332.65692139 C-241.03994261 341.85462803 -241.02038789 351.05230999 -241 360.25 C-240.97798219 370.19385043 -240.95741851 380.13769097 -240.94658184 390.08156085 C-240.94159193 394.39460841 -240.93172205 398.70760927 -240.91815186 403.02063799 C-240.91250027 405.0539521 -240.90911671 407.08725454 -240.9067688 409.12057495 C-240.90388865 411.60300418 -240.89738476 414.08543272 -240.88668823 416.56784058 C-240.88661774 417.65575897 -240.88654724 418.74367737 -240.88647461 419.86456299 C-240.884254 420.81359119 -240.88203339 421.7626194 -240.87974548 422.74040604 C-241 425 -241 425 -242 427 C-252.41342925 427.02312359 -262.82685244 427.04091517 -273.24030209 427.05181217 C-278.07516827 427.05704097 -282.91001694 427.06413854 -287.74487305 427.07543945 C-292.4067712 427.08626847 -297.06865246 427.09227686 -301.73056221 427.09487724 C-303.51324288 427.09673147 -305.29592259 427.10035203 -307.07859612 427.10573006 C-309.5666596 427.11294069 -312.05465243 427.11399093 -314.54272461 427.11352539 C-315.65942032 427.1189183 -315.65942032 427.1189183 -316.79867554 427.12442017 C-321.88594784 427.11405216 -321.88594784 427.11405216 -323 426 C-323.09904452 423.75966185 -323.1255576 421.51612414 -323.12584114 419.27359772 C-323.12729458 418.5585614 -323.12874802 417.84352508 -323.13024551 417.106821 C-323.13393164 414.68044622 -323.13040708 412.25413324 -323.12698364 409.82775879 C-323.12813443 408.08281754 -323.12972167 406.33787653 -323.13171089 404.59293604 C-323.13591002 399.77425377 -323.1338109 394.95559114 -323.13072467 390.13690877 C-323.12847315 384.94939998 -323.13194894 379.7618947 -323.13470459 374.5743866 C-323.13916396 364.40269151 -323.13818508 354.23100379 -323.13529195 344.05930841 C-323.13303857 335.79656245 -323.13272511 327.53381856 -323.13381577 319.27107239 C-323.133969 318.0975188 -323.13412223 316.9239652 -323.13428011 315.71484938 C-323.13459982 313.33120565 -323.13492403 310.94756191 -323.1352527 308.56391817 C-323.13810798 286.18377008 -323.13481972 263.80362608 -323.12945233 241.42347866 C-323.12498425 222.19751888 -323.12576017 202.97156514 -323.13037109 183.74560547 C-323.13571601 161.44852203 -323.13783328 139.15144218 -323.13475883 116.8543582 C-323.13444026 114.47921467 -323.13412589 112.10407114 -323.13381577 109.72892761 C-323.13366149 108.56014467 -323.13350721 107.39136173 -323.13334826 106.18716112 C-323.13248286 97.92911993 -323.13394648 89.671081 -323.13629532 81.41304016 C-323.13909261 71.35674603 -323.13835657 61.30045972 -323.13301457 51.24416649 C-323.13037659 46.10795545 -323.12937413 40.97175746 -323.13266373 35.83554649 C-323.13562471 31.14161882 -323.13403722 26.44771639 -323.12868617 21.75379103 C-323.12756113 20.04789273 -323.12815506 18.34199232 -323.13056196 16.63609535 C-323.13356456 14.33283318 -323.13052293 12.02965966 -323.12584114 9.72640228 C-323.12567879 8.44235048 -323.12551644 7.15829867 -323.12534916 5.83533621 C-323 3 -323 3 -322 2 C-319.25511774 1.75406729 -316.53665323 1.57964746 -313.78515625 1.453125 C-312.90658463 1.41149231 -312.028013 1.36985962 -311.12281799 1.32696533 C-299.52136543 0.83060796 -287.91345853 0.77755606 -276.30297852 0.75976562 C-272.3847273 0.74986668 -268.46696126 0.7186407 -264.54882812 0.6875 C-262.0520864 0.68098555 -259.555341 0.67572901 -257.05859375 0.671875 C-255.30572304 0.6533548 -255.30572304 0.6533548 -253.5174408 0.63446045 C-252.44103836 0.63746155 -251.36463593 0.64046265 -250.25561523 0.64355469 C-249.31000229 0.63990906 -248.36438934 0.63626343 -247.39012146 0.63250732 C-244.49718773 1.07730981 -243.82316316 1.76828859 -242 4 C-240.43160212 12.3655909 -240.90638667 20.96225983 -240.97827148 29.44360352 C-240.98842903 31.10007968 -240.99812107 32.75655876 -241.00738525 34.41304016 C-241.03371855 38.8876115 -241.06652725 43.36211426 -241.10053515 47.83663297 C-241.13502539 52.52110502 -241.1635096 57.20561358 -241.19264221 61.89012146 C-241.24865374 70.75092853 -241.31003425 79.61168987 -241.37336355 88.47244734 C-241.44522905 98.56433572 -241.51107899 108.65626059 -241.57643402 118.74819291 C-241.71094879 139.49884267 -241.85298421 160.24943529 -242 181 C-241.01 181 -240.02 181 -239 181 C-238.78214844 180.47277344 -238.56429687 179.94554687 -238.33984375 179.40234375 C-236.49666015 176.09751018 -234.04758454 173.39132462 -231.5625 170.5625 C-230.47753731 169.31148168 -229.39290958 168.06017278 -228.30859375 166.80859375 C-227.75800293 166.17550293 -227.20741211 165.54241211 -226.64013672 164.89013672 C-224.11767003 161.98317972 -221.61652351 159.05849812 -219.125 156.125 C-218.44171631 155.32231689 -218.44171631 155.32231689 -217.74462891 154.50341797 C-214.68863959 150.88729516 -211.82228596 147.18044121 -209.12109375 143.29296875 C-208.75113281 142.86628906 -208.38117188 142.43960938 -208 142 C-207.34 142 -206.68 142 -206 142 C-205.7628125 141.45859375 -205.525625 140.9171875 -205.28125 140.359375 C-203.65652243 137.36749863 -201.6498123 134.88840601 -199.5 132.25 C-198.7059375 131.26515625 -197.911875 130.2803125 -197.09375 129.265625 C-196.05734375 128.14414063 -196.05734375 128.14414063 -195 127 C-194.34 127 -193.68 127 -193 127 C-192.72285156 126.40316406 -192.44570312 125.80632812 -192.16015625 125.19140625 C-190.73712582 122.50345988 -188.83343631 120.38738384 -186.83203125 118.11328125 C-184.70622133 115.66112098 -182.66734106 113.14706193 -180.625 110.625 C-177.86593236 107.23594525 -175.06385348 103.92144327 -172.125 100.6875 C-168.78855798 96.9876831 -165.72932306 93.1280193 -162.6875 89.1875 C-158.72768724 84.0652552 -154.56697228 79.25968457 -150.13232422 74.54638672 C-146.12629082 70.24350439 -142.5227825 65.680614 -138.93603516 61.02636719 C-135.62062174 56.73809579 -132.13482052 52.66066228 -128.4609375 48.671875 C-126.92026312 47.05034396 -126.92026312 47.05034396 -126 45 C-125.34 45 -124.68 45 -124 45 C-123.73832031 44.42765625 -123.47664062 43.8553125 -123.20703125 43.265625 C-121.91050531 40.83201643 -120.43148658 38.88610347 -118.6875 36.75 C-117.9759375 35.8734375 -117.264375 34.996875 -116.53125 34.09375 C-115.6959375 33.0728125 -114.860625 32.051875 -114 31 C-112.44198995 29.08978023 -110.88520071 27.17857707 -109.3293457 25.26660156 C-108.28253327 23.98085128 -107.23433774 22.69622497 -106.18432617 21.41308594 C-105.4182605 20.47384277 -105.4182605 20.47384277 -104.63671875 19.515625 C-104.09773956 18.87956329 -103.55876038 18.24350159 -103.00344849 17.58816528 C-101.45697462 15.59034503 -100.2032871 13.70952854 -98.9238739 11.55227661 C-93.05082877 2.19907142 -93.05082877 2.19907142 -87.95870781 0.19770813 C-82.20060055 -1.03713749 -76.35991898 -0.75566921 -70.5078125 -0.5859375 C-68.62979332 -0.58225571 -66.75175279 -0.58477297 -64.87374878 -0.59317017 C-59.95832073 -0.59869429 -55.04771502 -0.52089182 -50.13336182 -0.42486572 C-45.1281629 -0.34190101 -40.12297014 -0.33839123 -35.1171875 -0.328125 C-26.32814974 -0.29977073 -17.54198156 -0.20330983 -8.75418091 -0.0562439 C-5.83509831 -0.01251117 -2.91925392 0.01196654 0 0 Z " fill="#58727B" transform="translate(356,30)"/>
<path d="M0 0 C0 139.26 0 278.52 0 422 C-25.08 422 -50.16 422 -76 422 C-77.86566661 420.13433339 -77.12008197 417.45849403 -77.12441921 414.9762426 C-77.11902677 413.66597577 -77.11902677 413.66597577 -77.11352539 412.32923889 C-77.11367425 411.40847374 -77.11382311 410.48770859 -77.11397648 409.53904146 C-77.1132775 406.42843011 -77.10541479 403.31787657 -77.09765625 400.20727539 C-77.09573862 397.98692864 -77.09427409 395.76658146 -77.0932312 393.54623413 C-77.09006082 388.75096406 -77.08377792 383.95571143 -77.07516479 379.16044807 C-77.06168159 371.57550816 -77.055756 363.99057412 -77.05102539 356.40562439 C-77.04368141 345.76674976 -77.03356295 335.12788251 -77.02050781 324.48901367 C-77.01926609 323.47549225 -77.01926609 323.47549225 -77.01799929 322.44149565 C-77.01126006 316.96392154 -77.00434045 311.48634766 -76.99739647 306.0087738 C-76.9913478 301.23395802 -76.98536578 296.45914217 -76.97949219 291.68432617 C-76.97866406 291.01219493 -76.97783593 290.34006369 -76.97698271 289.64756484 C-76.96327422 278.42194392 -76.95356747 267.19632278 -76.94658184 255.97069544 C-76.94160329 248.43431834 -76.93174794 240.89796821 -76.91815186 233.36160195 C-76.91067661 228.66303882 -76.90737331 223.96447938 -76.9051857 219.2659111 C-76.90331803 217.09154349 -76.89972576 214.91717655 -76.89425278 212.74281502 C-76.88699917 209.7663976 -76.88600064 206.79003871 -76.88647461 203.81361389 C-76.88108217 202.5334618 -76.88108217 202.5334618 -76.87558079 201.22744805 C-76.88541142 195.43339347 -77.329304 189.75413138 -78 184 C-80.69117159 186.66299071 -83.37762005 189.33066527 -86.0625 192 C-86.81466797 192.74378906 -87.56683594 193.48757812 -88.34179688 194.25390625 C-92.57382694 198.46761584 -96.59853212 202.77631917 -100.49243164 207.30322266 C-102.25406417 209.28595076 -104.13613526 211.00834164 -106.1875 212.6875 C-109.20398112 215.24168516 -111.53754393 217.90207139 -114 221 C-115.08804629 221.95616189 -116.19408992 222.89203861 -117.3125 223.8125 C-120.77906129 226.67520868 -123.58565903 229.88427801 -126.421875 233.36328125 C-128 235 -128 235 -131 236 C-131.26445419 236.54884857 -131.52890839 237.09769714 -131.80137634 237.66317749 C-133.59718991 241.16427439 -136.40351776 243.65527908 -139.17797852 246.38916016 C-139.81064636 247.02051376 -140.44331421 247.65186737 -141.09515381 248.30235291 C-143.1851785 250.385892 -145.28208237 252.46236807 -147.37890625 254.5390625 C-148.83147533 255.98536123 -150.28353049 257.43217628 -151.73509216 258.87948608 C-155.55603051 262.68712266 -159.38249604 266.48915198 -163.21057129 270.28961182 C-169.34298196 276.37889478 -175.46867221 282.47492034 -181.59116936 288.57416916 C-183.73432846 290.70707835 -185.88085344 292.83655741 -188.02772522 294.96572876 C-189.33573613 296.26691424 -190.64363901 297.56820834 -191.95141602 298.86962891 C-192.55247665 299.46395218 -193.15353729 300.05827545 -193.77281189 300.67060852 C-196.75401236 303.55529183 -196.75401236 303.55529183 -199 307 C-199.66 307 -200.32 307 -201 307 C-201.33 307.99 -201.66 308.98 -202 310 C-203.7421875 311.68359375 -203.7421875 311.68359375 -205.875 313.4375 C-208.10639842 315.27778615 -209.9162724 316.8860263 -211.6328125 319.22265625 C-212.08398438 319.80917969 -212.53515625 320.39570313 -213 321 C-213.66 321 -214.32 321 -215 321 C-215.33 321.99 -215.66 322.98 -216 324 C-219 326 -219 326 -220.96484375 325.80859375 C-223.31202294 324.87602927 -224.70244658 323.76989244 -226.5625 322.0625 C-227.25472656 321.43472656 -227.94695312 320.80695313 -228.66015625 320.16015625 C-229.43230469 319.44730469 -230.20445312 318.73445313 -231 318 C-232.83272965 316.33266953 -234.66609131 314.66603355 -236.5 313 C-237.89992188 311.72382812 -237.89992188 311.72382812 -239.328125 310.421875 C-243.50006955 306.64028783 -247.70587081 302.89572126 -252.046875 299.30859375 C-252.69140625 298.77363281 -253.3359375 298.23867188 -254 297.6875 C-254.5775 297.21699219 -255.155 296.74648438 -255.75 296.26171875 C-257 295 -257 295 -257 293 C-257.66 293 -258.32 293 -259 293 C-259.515625 292.319375 -260.03125 291.63875 -260.5625 290.9375 C-262.717663 288.34025229 -264.58259874 286.68919871 -267.25 284.6875 C-271.18184618 281.72091884 -274.59350625 278.50996171 -278.0234375 274.984375 C-282.02441802 270.96758033 -286.24977246 267.19164428 -290.9375 264 C-293 262 -293 262 -294.375 258.875 C-293.85376022 253.48885556 -291.24848643 251.4011533 -287.55078125 247.6171875 C-282.54818093 242.48435103 -278.18483409 236.77481738 -274.125 230.875 C-273.42375 229.92625 -272.7225 228.9775 -272 228 C-271.34 228 -270.68 228 -270 228 C-269.731875 227.41734375 -269.46375 226.8346875 -269.1875 226.234375 C-267.98519009 223.97213399 -266.66174087 222.19423682 -265 220.25 C-264.484375 219.63640625 -263.96875 219.0228125 -263.4375 218.390625 C-262 217 -262 217 -260 217 C-259.76023437 216.4534375 -259.52046875 215.906875 -259.2734375 215.34375 C-257.69055997 212.43047848 -255.73741963 210.05455397 -253.625 207.5 C-252.85414063 206.5615625 -252.08328125 205.623125 -251.2890625 204.65625 C-250.53367188 203.7796875 -249.77828125 202.903125 -249 202 C-248.36835938 201.2059375 -247.73671875 200.411875 -247.0859375 199.59375 C-245 198 -245 198 -242.04296875 197.97265625 C-238.44688568 199.18673821 -236.86402284 200.65442535 -234.3125 203.4375 C-231.90914514 206.02349322 -229.95055839 208.03296107 -227 210 C-225.22470656 212.66294015 -224.01431642 214.95705074 -223 218 C-218.12281749 217.54188315 -215.77834923 216.4310079 -212.25 213.0625 C-211.39792969 212.25425781 -210.54585938 211.44601563 -209.66796875 210.61328125 C-208.78753906 209.75089844 -207.90710938 208.88851562 -207 208 C-206.08863281 207.12730469 -205.17726563 206.25460938 -204.23828125 205.35546875 C-199.4648601 200.87783065 -199.4648601 200.87783065 -195.63294983 195.63471985 C-193.91187761 192.85781693 -192.0491857 190.79527971 -189.74389648 188.48510742 C-188.88968613 187.62459274 -188.03547577 186.76407806 -187.15538025 185.87748718 C-186.2365657 184.9627211 -185.31775116 184.04795502 -184.37109375 183.10546875 C-183.41580959 182.14883631 -182.4608224 181.19190724 -181.50611877 180.23469543 C-179.51129995 178.23693727 -177.51293129 176.24281881 -175.51196289 174.2512207 C-172.9438075 171.69450566 -170.38479733 169.12885384 -167.82833767 166.56045055 C-165.86145366 164.58635532 -163.8898508 162.6170288 -161.91676521 160.64913368 C-160.51036375 159.24471859 -159.10799581 157.83626805 -157.70567322 156.42778015 C-156.42908592 155.16064934 -156.42908592 155.16064934 -155.12670898 153.86791992 C-154.37630844 153.11911057 -153.6259079 152.37030121 -152.85276794 151.59880066 C-151 150 -151 150 -149 150 C-148.731875 149.195625 -148.46375 148.39125 -148.1875 147.5625 C-147.795625 146.716875 -147.40375 145.87125 -147 145 C-146.01 144.67 -145.02 144.34 -144 144 C-142.99176187 142.33830398 -141.99352037 140.67053736 -141 139 C-139.12804528 136.95889334 -137.24643969 135.00314057 -135.27514648 133.06396484 C-134.70246033 132.49259293 -134.12977417 131.92122101 -133.53973389 131.33253479 C-131.65475183 129.45401869 -129.76289651 127.58258222 -127.87109375 125.7109375 C-126.55686941 124.40298696 -125.24316115 123.09451767 -123.9299469 121.78555298 C-120.47766873 118.3465564 -117.01986303 114.91317654 -113.5604248 111.48138428 C-108.01860699 105.9827449 -102.48353903 100.4773312 -96.95167732 94.96867752 C-95.01853054 93.04575562 -93.08200836 91.12628136 -91.14512634 89.2071228 C-89.961789 88.03061277 -88.77856062 86.85399314 -87.59545898 85.67724609 C-87.0556691 85.14419357 -86.51587921 84.61114105 -85.95973206 84.06193542 C-83.68723165 81.79639538 -81.7877908 79.6816862 -80 77 C-79.34 77 -78.68 77 -78 77 C-77.6596875 76.1646875 -77.6596875 76.1646875 -77.3125 75.3125 C-75.62507847 72.33942397 -73.4478874 70.39659224 -71 68 C-69.94402584 66.94081798 -68.88992198 65.87976911 -67.83737183 64.81718445 C-67.26267151 64.23814865 -66.68797119 63.65911285 -66.09585571 63.06253052 C-65.48269501 62.44465668 -64.8695343 61.82678284 -64.23779297 61.19018555 C-57.54718429 54.45066383 -50.84902044 47.71870333 -44.14648247 40.99104595 C-40.09514249 36.92398455 -36.04667999 32.85413864 -32.00439453 28.77807617 C-28.08889402 24.83007691 -24.16619568 20.88936547 -20.23831558 16.95368385 C-18.74211568 15.45193046 -17.24856369 13.94753425 -15.75768661 12.44049644 C-13.67980358 10.34096118 -11.59284851 8.25087627 -9.50341797 6.1628418 C-8.8862088 5.5348468 -8.26899963 4.90685181 -7.63308716 4.25982666 C-3.3421641 0 -3.3421641 0 0 0 Z " fill="#769BA5" transform="translate(474,34)"/>
<path d="M0 0 C0.66 0 1.32 0 2 0 C2 79.86 2 159.72 2 242 C26.75 242 51.5 242 77 242 C77 242.33 77 242.66 77 243 C67.10810624 243.02312428 57.21621886 243.04091552 47.32430363 243.05181217 C42.7315736 243.05704082 38.138862 243.06413812 33.54614258 243.07543945 C29.11766312 243.086269 24.68920144 243.09227698 20.26070976 243.09487724 C18.56734372 243.09673137 16.87397871 243.10035175 15.18062019 243.10573006 C12.81708768 243.1129414 10.45362955 243.1139909 8.09008789 243.11352539 C7.38302704 243.11712067 6.67596619 243.12071594 5.94747925 243.12442017 C1.11405216 243.11405216 1.11405216 243.11405216 0 242 C-0.09573789 239.10189162 -0.12545402 236.22768202 -0.11352539 233.32923889 C-0.11367425 232.40847374 -0.11382311 231.48770859 -0.11397648 230.53904146 C-0.1132775 227.42843011 -0.10541479 224.31787657 -0.09765625 221.20727539 C-0.09573862 218.98692864 -0.09427409 216.76658146 -0.0932312 214.54623413 C-0.09006082 209.75096406 -0.08377792 204.95571143 -0.07516479 200.16044807 C-0.06168159 192.57550816 -0.055756 184.99057412 -0.05102539 177.40562439 C-0.04368141 166.76674976 -0.03356295 156.12788251 -0.02050781 145.48901367 C-0.01926609 144.47549225 -0.01926609 144.47549225 -0.01799929 143.44149565 C-0.01126006 137.96392154 -0.00434045 132.48634766 0.00260353 127.0087738 C0.0086522 122.23395802 0.01463422 117.45914217 0.02050781 112.68432617 C0.02133594 112.01219493 0.02216407 111.34006369 0.02301729 110.64756484 C0.03672578 99.42194392 0.04643253 88.19632278 0.05341816 76.97069544 C0.05839671 69.43431834 0.06825206 61.89796821 0.08184814 54.36160195 C0.08932339 49.66303882 0.09262669 44.96447938 0.0948143 40.2659111 C0.09668197 38.09154349 0.10027424 35.91717655 0.10574722 33.74281502 C0.11300083 30.7663976 0.11399936 27.79003871 0.11352539 24.81361389 C0.11891783 23.5334618 0.11891783 23.5334618 0.12441921 22.22744805 C0.11458858 16.43339347 -0.329304 10.75413138 -1 5 C-3.69117159 7.66299071 -6.37762005 10.33066527 -9.0625 13 C-9.81466797 13.74378906 -10.56683594 14.48757812 -11.34179688 15.25390625 C-15.57382694 19.46761584 -19.59853212 23.77631917 -23.49243164 28.30322266 C-25.25406417 30.28595076 -27.13613526 32.00834164 -29.1875 33.6875 C-32.20398112 36.24168516 -34.53754393 38.90207139 -37 42 C-38.08804629 42.95616189 -39.19408992 43.89203861 -40.3125 44.8125 C-43.77906129 47.67520868 -46.58565903 50.88427801 -49.421875 54.36328125 C-51 56 -51 56 -54 57 C-54.39668129 57.82327286 -54.39668129 57.82327286 -54.80137634 58.66317749 C-56.59718991 62.16427439 -59.40351776 64.65527908 -62.17797852 67.38916016 C-63.12698029 68.33619057 -63.12698029 68.33619057 -64.09515381 69.30235291 C-66.1851785 71.385892 -68.28208237 73.46236807 -70.37890625 75.5390625 C-71.83147533 76.98536123 -73.28353049 78.43217628 -74.73509216 79.87948608 C-78.55603051 83.68712266 -82.38249604 87.48915198 -86.21057129 91.28961182 C-92.34298196 97.37889478 -98.46867221 103.47492034 -104.59116936 109.57416916 C-106.73432846 111.70707835 -108.88085344 113.83655741 -111.02772522 115.96572876 C-112.33573613 117.26691424 -113.64363901 118.56820834 -114.95141602 119.86962891 C-115.85300697 120.76111382 -115.85300697 120.76111382 -116.77281189 121.67060852 C-119.75401236 124.55529183 -119.75401236 124.55529183 -122 128 C-122.66 128 -123.32 128 -124 128 C-124.33 128.99 -124.66 129.98 -125 131 C-126.7421875 132.68359375 -126.7421875 132.68359375 -128.875 134.4375 C-131.10639842 136.27778615 -132.9162724 137.8860263 -134.6328125 140.22265625 C-135.08398438 140.80917969 -135.53515625 141.39570313 -136 142 C-136.66 142 -137.32 142 -138 142 C-138.33 142.99 -138.66 143.98 -139 145 C-142 147 -142 147 -143.96484375 146.80859375 C-146.31202294 145.87602927 -147.70244658 144.76989244 -149.5625 143.0625 C-150.25472656 142.43472656 -150.94695312 141.80695313 -151.66015625 141.16015625 C-152.43230469 140.44730469 -153.20445312 139.73445312 -154 139 C-155.83272965 137.33266953 -157.66609131 135.66603355 -159.5 134 C-160.43328125 133.14921875 -161.3665625 132.2984375 -162.328125 131.421875 C-166.50006955 127.64028783 -170.70587081 123.89572126 -175.046875 120.30859375 C-176.01367188 119.50615234 -176.01367188 119.50615234 -177 118.6875 C-177.86625 117.98173828 -177.86625 117.98173828 -178.75 117.26171875 C-180 116 -180 116 -180 114 C-180.66 114 -181.32 114 -182 114 C-182.515625 113.319375 -183.03125 112.63875 -183.5625 111.9375 C-185.717663 109.34025229 -187.58259874 107.68919871 -190.25 105.6875 C-194.18184618 102.72091884 -197.59350625 99.50996171 -201.0234375 95.984375 C-205.02441802 91.96758033 -209.24977246 88.19164428 -213.9375 85 C-216 83 -216 83 -217.375 79.875 C-216.85376022 74.48885556 -214.24848643 72.4011533 -210.55078125 68.6171875 C-205.54818093 63.48435103 -201.18483409 57.77481738 -197.125 51.875 C-196.42375 50.92625 -195.7225 49.9775 -195 49 C-194.34 49 -193.68 49 -193 49 C-192.731875 48.41734375 -192.46375 47.8346875 -192.1875 47.234375 C-190.98519009 44.97213399 -189.66174087 43.19423682 -188 41.25 C-187.484375 40.63640625 -186.96875 40.0228125 -186.4375 39.390625 C-185 38 -185 38 -183 38 C-182.76023438 37.4534375 -182.52046875 36.906875 -182.2734375 36.34375 C-180.69055997 33.43047848 -178.73741963 31.05455397 -176.625 28.5 C-175.46871094 27.09234375 -175.46871094 27.09234375 -174.2890625 25.65625 C-173.53367188 24.7796875 -172.77828125 23.903125 -172 23 C-171.36835938 22.2059375 -170.73671875 21.411875 -170.0859375 20.59375 C-168 19 -168 19 -165.04296875 18.97265625 C-161.44688568 20.18673821 -159.86402284 21.65442535 -157.3125 24.4375 C-154.90914514 27.02349322 -152.95055839 29.03296107 -150 31 C-150 31.66 -150 32.32 -150 33 C-154.00401967 31.63692947 -156.63435702 29.84380836 -159.75 27 C-160.52859375 26.29875 -161.3071875 25.5975 -162.109375 24.875 C-164 23 -164 23 -165 21 C-168.89688376 22.49351933 -170.39187402 24.67201665 -172.625 28.125 C-173.70064146 29.78308487 -174.81508001 31.418161 -176 33 C-176.66 33 -177.32 33 -178 33 C-178.28875 33.598125 -178.5775 34.19625 -178.875 34.8125 C-180 37 -180 37 -182 40 C-182.66 40 -183.32 40 -184 40 C-184 40.66 -184 41.32 -184 42 C-184.66 42 -185.32 42 -186 42 C-186.309375 43.0209375 -186.309375 43.0209375 -186.625 44.0625 C-188.42895027 47.91639375 -190.9010345 51.07787764 -194 54 C-194.66 54 -195.32 54 -196 54 C-196.2475 54.55171875 -196.495 55.1034375 -196.75 55.671875 C-198.24234474 58.45136707 -200.03672523 60.7814707 -202 63.25 C-202.70125 64.14203125 -203.4025 65.0340625 -204.125 65.953125 C-204.74375 66.62859375 -205.3625 67.3040625 -206 68 C-206.66 68 -207.32 68 -208 68 C-208.2475 68.78375 -208.495 69.5675 -208.75 70.375 C-210.20780864 73.43639814 -211.07993473 73.58706519 -214 75 C-214.64766982 77.02247614 -214.64766982 77.02247614 -215 79 C-213.89591797 79.99580078 -213.89591797 79.99580078 -212.76953125 81.01171875 C-211.79371094 81.89472656 -210.81789062 82.77773438 -209.8125 83.6875 C-208.84957031 84.55761719 -207.88664063 85.42773438 -206.89453125 86.32421875 C-204.19361938 88.82101313 -201.60035498 91.39964502 -199 94 C-197.00334402 95.67067133 -195.00348966 97.33752986 -193 99 C-191.66666667 100.33333333 -190.33333333 101.66666667 -189 103 C-187.14214298 104.55963268 -185.27471511 106.10495792 -183.390625 107.6328125 C-182.70226562 108.30957031 -182.70226562 108.30957031 -182 109 C-182 109.66 -182 110.32 -182 111 C-181.443125 111.226875 -180.88625 111.45375 -180.3125 111.6875 C-177.95712893 113.02433223 -176.39445962 114.60138824 -174.51391602 116.5222168 C-170.96554619 119.98589726 -167.06967477 123.09679178 -163.26367188 126.27148438 C-162.61591797 126.82255859 -161.96816406 127.37363281 -161.30078125 127.94140625 C-160.42160034 128.67919312 -160.42160034 128.67919312 -159.5246582 129.43188477 C-158 131 -158 131 -156.94995117 133.12866211 C-156.12162447 135.27025454 -156.12162447 135.27025454 -153.5 136 C-150.44377319 137.22249072 -150.34441462 138.13191548 -149 141 C-146.85762856 142.49966001 -145.70790394 143.08703737 -143.09375 142.765625 C-140.47576451 141.80830195 -139.2506017 140.48248423 -137.375 138.4375 C-136.28681232 137.25665005 -135.16806798 136.10189664 -134 135 C-133.34 135 -132.68 135 -132 135 C-131.773125 134.443125 -131.54625 133.88625 -131.3125 133.3125 C-129.62622733 130.34144815 -127.469646 128.35477875 -125 126 C-124.113125 125.071875 -123.22625 124.14375 -122.3125 123.1875 C-120 121 -120 121 -118 121 C-118 120.34 -118 119.68 -118 119 C-117.34 119 -116.68 119 -116 119 C-115.773125 118.443125 -115.54625 117.88625 -115.3125 117.3125 C-113.25194706 113.68200197 -110.59352047 110.77399565 -106.8125 108.9375 C-104.85358022 108.15492841 -104.85358022 108.15492841 -104.14334965 106.21264839 C-102.75275982 103.52153254 -101.04079628 101.79800966 -98.89390564 99.66012573 C-97.60458382 98.36884766 -97.60458382 98.36884766 -96.28921509 97.05148315 C-95.33474419 96.10568468 -94.38018179 95.15997853 -93.42553711 94.21435547 C-92.42151454 93.2125347 -91.41793977 92.21026495 -90.41477966 91.20758057 C-88.25579551 89.05152764 -86.09369501 86.89866697 -83.92912102 84.74822617 C-80.50853483 81.34990647 -77.09505124 77.94451234 -73.68251038 74.53811646 C-68.28661657 69.15360029 -62.88606946 63.7737792 -57.48347908 58.39598286 C-47.8015624 48.7584184 -38.12524763 39.1152372 -28.45410925 29.46685708 C-25.05831538 26.07948537 -21.6597334 22.69494283 -18.25890529 19.31262565 C-16.14758468 17.21192468 -14.03827478 15.10921341 -11.92946815 13.00598907 C-10.94872544 12.02872573 -9.96711171 11.05233564 -8.98458099 10.07686996 C-7.64714389 8.74884154 -6.3130312 7.4174676 -4.97911072 6.08590698 C-4.23044707 5.34076277 -3.48178343 4.59561855 -2.71043301 3.82789421 C-0.93195421 2.10105653 -0.93195421 2.10105653 0 0 Z " fill="#45535E" transform="translate(397,213)"/>
<path d="M0 0 C3.91825121 -0.00989895 7.83601726 -0.04112492 11.75415039 -0.07226562 C14.25089212 -0.07878007 16.74763752 -0.08403661 19.24438477 -0.08789062 C20.99725548 -0.10641083 20.99725548 -0.10641083 22.78553772 -0.12530518 C23.86194016 -0.12230408 24.93834259 -0.11930298 26.04736328 -0.11621094 C26.99297623 -0.11985657 27.93858917 -0.1235022 28.91285706 -0.1272583 C31.80578068 0.31754263 32.48006164 1.0082865 34.30297852 3.24023438 C35.85983917 11.59449188 35.42234856 20.18182337 35.38476562 28.65209961 C35.38120473 30.30533252 35.37812006 31.95856652 35.37547302 33.61180115 C35.36895032 37.15574375 35.35941005 40.6996606 35.34757805 44.2435894 C35.32922478 49.84427711 35.31967152 55.44495875 35.31166077 61.04566956 C35.28755035 76.96593931 35.25149931 92.88617109 35.20703125 108.80639648 C35.18251568 117.61111077 35.16513653 126.41581054 35.15547186 135.22055393 C35.14891898 140.79225006 35.13334176 146.36382624 35.11115444 151.93548095 C35.09945978 155.39139676 35.09605919 158.84728304 35.09505653 162.30321693 C35.09290182 163.9101127 35.0872855 165.51700795 35.07802582 167.12387848 C35.06591009 169.31014243 35.06597953 171.49607074 35.06919861 173.68235779 C35.0660562 174.90771461 35.0629138 176.13307142 35.05967617 177.39556026 C35.00667861 180.37345205 35.00667861 180.37345205 37.30297852 182.24023438 C36.64297852 183.23023438 35.98297852 184.22023437 35.30297852 185.24023438 C34.64297852 185.24023438 33.98297852 185.24023438 33.30297852 185.24023438 C33.2980133 183.84376143 33.2980133 183.84376143 33.29294777 182.41907692 C33.21205085 159.79448002 33.11976541 137.1699516 33.01545143 114.54545021 C32.9652718 103.6045332 32.91882961 92.66362388 32.88110352 81.72265625 C32.84822245 72.18952171 32.80841297 62.65644598 32.76018846 53.12337625 C32.7348847 48.07297212 32.71311499 43.0226072 32.69963455 37.97215652 C32.68684923 33.22307207 32.66483341 28.4741218 32.63559532 23.72511101 C32.62649181 21.97795368 32.62082289 20.23077473 32.61876488 18.48359489 C32.6154618 16.10631014 32.60003828 13.72941037 32.58145142 11.35220337 C32.58435352 10.30454943 32.58435352 10.30454943 32.58731425 9.23573077 C32.63657555 5.29621895 32.63657555 5.29621895 30.30297852 2.24023438 C28.20368758 1.93453465 28.20368758 1.93453465 25.75927734 1.98144531 C24.81260696 1.97514099 23.86593658 1.96883667 22.89057922 1.96234131 C21.34094734 1.968414 21.34094734 1.968414 19.76000977 1.97460938 C18.68538986 1.97269592 17.61076996 1.97078247 16.50358582 1.96881104 C14.21104704 1.96744581 11.91850062 1.97116564 9.62597656 1.97949219 C6.20236511 1.9899685 2.77930544 1.97972454 -0.64428711 1.96679688 C-2.88452261 1.96812267 -5.12475777 1.97069366 -7.36499023 1.97460938 C-8.35556931 1.97056091 -9.34614838 1.96651245 -10.366745 1.96234131 C-21.52050841 2.03176503 -32.60045185 3.19247789 -43.69702148 4.24023438 C-44.56691119 60.9374361 -44.84388913 117.63514529 -45.01342773 174.33789062 C-45.01613645 175.24121893 -45.01884516 176.14454724 -45.02163595 177.07524914 C-45.09143759 200.40751281 -45.15415593 223.73979384 -45.21443021 247.07208383 C-45.24949036 260.61829193 -45.28646976 274.16449386 -45.32470703 287.71069336 C-45.3274313 288.6760065 -45.33015558 289.64131965 -45.3329624 290.63588471 C-45.34665012 295.4825259 -45.36036876 300.32916701 -45.37410271 305.17580807 C-45.48652779 344.86393826 -45.59301111 384.55208107 -45.69702148 424.24023438 C-19.62702148 424.24023438 6.44297852 424.24023438 33.30297852 424.24023438 C33.26817383 414.81589844 33.23336914 405.3915625 33.19750977 395.68164062 C33.1821791 389.70702878 33.16761277 383.73243121 33.15649414 377.7578125 C33.13870874 368.27704996 33.11782562 358.79636754 33.07666016 349.31567383 C33.04669094 342.41024222 33.0273877 335.50487575 33.02071303 328.59938091 C33.01681346 324.94539411 33.00769479 321.2915936 32.98578835 317.6376667 C32.9614903 313.55141172 32.96101333 309.46547745 32.96240234 305.37915039 C32.95161652 304.17721039 32.94083069 302.97527039 32.92971802 301.73690796 C32.96017661 293.44246547 33.48653273 286.01444636 39.29907227 279.69335938 C40.4310978 278.60964404 41.57854359 277.54181794 42.74047852 276.49023438 C43.88720906 275.41444891 45.03178712 274.33636386 46.17407227 273.25585938 C46.71402832 272.75119141 47.25398438 272.24652344 47.81030273 271.7265625 C49.52043356 270.08231791 49.52043356 270.08231791 51.58813477 267.34960938 C52.43698242 266.30546875 52.43698242 266.30546875 53.30297852 265.24023438 C53.96297852 265.24023438 54.62297852 265.24023438 55.30297852 265.24023438 C55.57110352 264.60085938 55.83922852 263.96148437 56.11547852 263.30273438 C57.30297852 261.24023438 57.30297852 261.24023438 60.30297852 260.24023438 C60.63297852 259.58023437 60.96297852 258.92023438 61.30297852 258.24023438 C62.30297852 256.24023438 62.30297852 256.24023438 65.30297852 255.24023438 C65.98969718 253.91711696 66.65216418 252.58137677 67.30297852 251.24023438 C68.76199627 249.51717795 70.26617832 247.83179043 71.80297852 246.17773438 C74.20834583 243.58103103 76.33702056 241.18917131 78.30297852 238.24023438 C78.96297852 238.24023438 79.62297852 238.24023438 80.30297852 238.24023438 C80.61235352 237.62148438 80.92172852 237.00273437 81.24047852 236.36523438 C81.92797852 234.99023438 82.61547852 233.61523438 83.30297852 232.24023438 C83.96297852 232.24023438 84.62297852 232.24023438 85.30297852 232.24023438 C85.54145508 231.68464844 85.77993164 231.1290625 86.02563477 230.55664062 C87.59557699 227.70962002 89.54218301 225.57095264 91.74047852 223.17773438 C92.91416992 221.89189453 92.91416992 221.89189453 94.11157227 220.58007812 C95.81218719 218.76427004 97.52715756 216.98179512 99.30297852 215.24023438 C98.77362268 219.37883454 96.55724901 221.41515108 93.74047852 224.36523438 C89.51045331 228.87442911 85.63807728 233.50976612 81.89672852 238.43945312 C81.37079102 239.03371094 80.84485352 239.62796875 80.30297852 240.24023438 C79.64297852 240.24023438 78.98297852 240.24023438 78.30297852 240.24023438 C78.03485352 240.81515625 77.76672852 241.39007813 77.49047852 241.98242188 C72.58355274 251.31203732 64.08044445 258.62643087 56.65063477 265.90673828 C52.95648116 269.53425287 49.42011226 273.08927738 46.30297852 277.24023438 C44.67797852 279.05273437 44.67797852 279.05273437 43.30297852 280.24023438 C42.64297852 280.24023438 41.98297852 280.24023438 41.30297852 280.24023438 C40.90079102 281.10648437 40.90079102 281.10648437 40.49047852 281.99023438 C39.30297852 284.24023438 39.30297852 284.24023438 37.74047852 286.11523438 C34.99436736 290.17470304 35.17830116 295.1099914 35.18945312 299.88360596 C35.18952362 300.98280365 35.18959412 302.08200134 35.18966675 303.21450806 C35.19483307 304.40539032 35.19999939 305.59627258 35.20532227 306.82324219 C35.20756363 308.76586008 35.20980475 310.70847797 35.21203613 312.65109587 C35.21539853 314.7303913 35.22124925 316.8096665 35.22781372 318.88895416 C35.24136527 323.22501898 35.24723592 327.56107358 35.25195312 331.89715576 C35.2630359 341.09486241 35.28259062 350.29254436 35.30297852 359.49023438 C35.32499633 369.4340848 35.34556 379.37792535 35.35639668 389.32179523 C35.36138659 393.63484278 35.37125647 397.94784364 35.38482666 402.26087236 C35.39047825 404.29418648 35.3938618 406.32748892 35.39620972 408.36080933 C35.39908986 410.84323855 35.40559375 413.3256671 35.41629028 415.80807495 C35.41636078 416.89599335 35.41643127 417.98391174 35.41650391 419.10479736 C35.41872452 420.05382557 35.42094513 421.00285378 35.42323303 421.98064041 C35.30297852 424.24023438 35.30297852 424.24023438 34.30297852 426.24023438 C23.88954927 426.26335797 13.47612608 426.28114954 3.06267643 426.29204655 C-1.77218975 426.29727534 -6.60703843 426.30437292 -11.44189453 426.31567383 C-16.10379268 426.32650284 -20.76567394 426.33251124 -25.42758369 426.33511162 C-27.21026437 426.33696584 -28.99294407 426.3405864 -30.7756176 426.34596443 C-33.26368109 426.35317506 -35.75167392 426.35422531 -38.23974609 426.35375977 C-39.3564418 426.35915268 -39.3564418 426.35915268 -40.49569702 426.36465454 C-45.58296932 426.35428654 -45.58296932 426.35428654 -46.69702148 425.24023438 C-46.796066 422.99989622 -46.82257909 420.75635852 -46.82286263 418.51383209 C-46.82431607 417.79879578 -46.82576951 417.08375946 -46.82726699 416.34705538 C-46.83095313 413.9206806 -46.82742857 411.49436762 -46.82400513 409.06799316 C-46.82515592 407.32305192 -46.82674315 405.57811091 -46.82873237 403.83317041 C-46.83293151 399.01448814 -46.83083239 394.19582551 -46.82774615 389.37714314 C-46.82549464 384.18963436 -46.82897042 379.00212908 -46.83172607 373.81462097 C-46.83618544 363.64292589 -46.83520657 353.47123816 -46.83231343 343.29954278 C-46.83006005 335.03679683 -46.82974659 326.77405294 -46.83083725 318.51130676 C-46.83099048 317.33775317 -46.83114372 316.16419958 -46.83130159 314.95508376 C-46.8316213 312.57144002 -46.83194551 310.18779628 -46.83227418 307.80415255 C-46.83512946 285.42400446 -46.8318412 263.04386046 -46.82647382 240.66371304 C-46.82200574 221.43775326 -46.82278165 202.21179951 -46.82739258 182.98583984 C-46.8327375 160.68875641 -46.83485477 138.39167656 -46.83178031 116.09459257 C-46.83146175 113.71944904 -46.83114738 111.34430552 -46.83083725 108.96916199 C-46.83068297 107.80037904 -46.8305287 106.6315961 -46.83036975 105.42739549 C-46.82950434 97.1693543 -46.83096797 88.91131538 -46.8333168 80.65327454 C-46.83611409 70.59698041 -46.83537806 60.54069409 -46.83003606 50.48440087 C-46.82739807 45.34818983 -46.82639561 40.21199183 -46.82968521 35.07578087 C-46.83264619 30.38185319 -46.8310587 25.68795077 -46.82570766 20.99402541 C-46.82458262 19.2881271 -46.82517655 17.5822267 -46.82758345 15.87632972 C-46.83058605 13.57306756 -46.82754441 11.26989404 -46.82286263 8.96663666 C-46.82270027 7.68258485 -46.82253792 6.39853305 -46.82237065 5.07557058 C-46.69702148 2.24023438 -46.69702148 2.24023438 -45.69702148 1.24023438 C-42.95213922 0.99430167 -40.23367471 0.81988183 -37.48217773 0.69335938 C-36.60360611 0.65172668 -35.72503448 0.61009399 -34.81983948 0.56719971 C-23.21838691 0.07084234 -11.61048002 0.01779043 0 0 Z " fill="#33384B" transform="translate(79.697021484375,30.759765625)"/>
<path d="M0 0 C1.22976059 -0.00570007 2.45952118 -0.01140015 3.72654724 -0.01727295 C6.27789482 -0.02658351 8.82925366 -0.03319999 11.38061523 -0.03710938 C15.29886645 -0.04700832 19.21663249 -0.0782343 23.13476562 -0.109375 C25.63150735 -0.11588945 28.12825275 -0.12114599 30.625 -0.125 C32.37787071 -0.1435202 32.37787071 -0.1435202 34.16615295 -0.16241455 C35.24255539 -0.15941345 36.31895782 -0.15641235 37.42797852 -0.15332031 C38.37359146 -0.15696594 39.31920441 -0.16061157 40.29347229 -0.16436768 C43.18639591 0.28043325 43.86067688 0.97117712 45.68359375 3.203125 C47.24045441 11.55738251 46.80296379 20.144714 46.76538086 28.61499023 C46.76181997 30.26822315 46.75873529 31.92145714 46.75608826 33.57469177 C46.74956555 37.11863438 46.74002528 40.66255122 46.72819328 44.20648003 C46.70984001 49.80716774 46.70028675 55.40784937 46.692276 61.00856018 C46.66816559 76.92882994 46.63211454 92.84906172 46.58764648 108.76928711 C46.56313091 117.57400139 46.54575177 126.37870117 46.5360871 135.18344456 C46.52953421 140.75514068 46.513957 146.32671687 46.49176967 151.89837158 C46.48007502 155.35428738 46.47667443 158.81017366 46.47567177 162.26610756 C46.47351705 163.87300332 46.46790074 165.47989857 46.45864105 167.0867691 C46.44652532 169.27303305 46.44659476 171.45896137 46.44981384 173.64524841 C46.44667144 174.87060523 46.44352903 176.09596205 46.4402914 177.35845089 C46.38729384 180.33634268 46.38729384 180.33634268 48.68359375 182.203125 C48.02359375 183.193125 47.36359375 184.183125 46.68359375 185.203125 C46.02359375 185.203125 45.36359375 185.203125 44.68359375 185.203125 C44.67862853 183.80665206 44.67862853 183.80665206 44.673563 182.38196754 C44.59266608 159.75737065 44.50038065 137.13284222 44.39606667 114.50834084 C44.34588704 103.56742382 44.29944484 92.6265145 44.26171875 81.68554688 C44.22883768 72.15241234 44.1890282 62.61933661 44.14080369 53.08626688 C44.11549993 48.03586275 44.09373022 42.98549782 44.08024979 37.93504715 C44.06746447 33.1859627 44.04544865 28.43701243 44.01621056 23.68800163 C44.00710704 21.9408443 44.00143813 20.19366535 43.99938011 18.44648552 C43.99607704 16.06920076 43.98065351 13.69230099 43.96206665 11.31509399 C43.96496875 10.26744006 43.96496875 10.26744006 43.96792948 9.19862139 C44.01719079 5.25910957 44.01719079 5.25910957 41.68359375 2.203125 C39.58430282 1.89742528 39.58430282 1.89742528 37.13989258 1.94433594 C36.1932222 1.93803162 35.24655182 1.93172729 34.27119446 1.92523193 C32.72156258 1.93130463 32.72156258 1.93130463 31.140625 1.9375 C30.0660051 1.93558655 28.99138519 1.9336731 27.88420105 1.93170166 C25.59166227 1.93033643 23.29911586 1.93405626 21.0065918 1.94238281 C17.58298035 1.95285913 14.15992067 1.94261516 10.73632812 1.9296875 C8.49609263 1.93101329 6.25585747 1.93358428 4.015625 1.9375 C3.02504593 1.93345154 2.03446686 1.92940308 1.01387024 1.92523193 C-10.22525026 1.99518694 -20.9927472 3.218459 -32.31640625 4.203125 C-32.64640625 33.573125 -32.97640625 62.943125 -33.31640625 93.203125 C-33.64640625 93.203125 -33.97640625 93.203125 -34.31640625 93.203125 C-34.31640625 62.843125 -34.31640625 32.483125 -34.31640625 1.203125 C-11.08461641 0.04153551 -11.08461641 0.04153551 0 0 Z " fill="#394854" transform="translate(68.31640625,30.796875)"/>
<path d="M0 0 C1.485 0.495 1.485 0.495 3 1 C3 1.66 3 2.32 3 3 C1.96504395 3.60885544 1.96504395 3.60885544 0.90917969 4.23001099 C-2.78299523 6.47638616 -5.52192229 9.25808739 -8.546875 12.31982422 C-9.18330933 12.95596649 -9.81974365 13.59210876 -10.47546387 14.24752808 C-12.57175335 16.34520725 -14.66087191 18.44987806 -16.75 20.5546875 C-18.21017394 22.01859501 -19.67079262 23.48205904 -21.13183594 24.94509888 C-24.97465349 28.79554371 -28.811432 32.65195176 -32.64697266 36.50964355 C-36.54230029 40.42538144 -40.44324349 44.33551577 -44.34375 48.24609375 C-50.647966 54.56787692 -56.94873969 60.89306639 -63.24499512 67.22277832 C-63.79997681 67.78065033 -64.3549585 68.33852234 -64.92675781 68.91329956 C-65.71288405 69.70421588 -65.71288405 69.70421588 -66.51489162 70.51111031 C-67.8871452 71.88685786 -69.26791745 73.25409423 -70.64942932 74.62054443 C-72.90233007 76.90112985 -75.03680627 79.24526082 -77.15600586 81.64990234 C-82.08739067 87.15839997 -87.2623681 92.38955844 -92.50390625 97.6015625 C-93.47775497 98.57353962 -94.45137832 99.54574259 -95.42478943 100.51815796 C-97.95253582 103.0421375 -100.48327293 105.56309627 -103.01470947 108.08337402 C-105.61127837 110.66960129 -108.20491842 113.25876239 -110.79882812 115.84765625 C-115.86307046 120.90126454 -120.93048753 125.95167797 -126 131 C-126 128 -126 128 -124.71595764 126.36192322 C-124.1149675 125.77061111 -123.51397736 125.17929901 -122.89477539 124.57006836 C-122.21729752 123.89604477 -121.53981964 123.22202118 -120.84181213 122.52757263 C-120.10124069 121.8056221 -119.36066925 121.08367157 -118.59765625 120.33984375 C-117.8453624 119.59416641 -117.09306854 118.84848907 -116.31797791 118.08021545 C-113.90644208 115.69214766 -111.48500393 113.31443658 -109.0625 110.9375 C-106.64529963 108.55531414 -104.23022158 106.17103106 -101.81773376 103.78407288 C-100.31399961 102.29736733 -98.80720202 100.81375296 -97.2971344 99.33348083 C-96.61650436 98.66260941 -95.93587433 97.99173798 -95.23461914 97.30053711 C-94.6328334 96.7100206 -94.03104767 96.11950409 -93.411026 95.51109314 C-91.89974971 94.03581121 -91.89974971 94.03581121 -91 92 C-90.34 92 -89.68 92 -89 92 C-88.505 90.515 -88.505 90.515 -88 89 C-87.34 89 -86.68 89 -86 89 C-86 88.34 -86 87.68 -86 87 C-83.625 84.375 -83.625 84.375 -81 82 C-80.34 82 -79.68 82 -79 82 C-78.773125 81.46375 -78.54625 80.9275 -78.3125 80.375 C-75.78317479 75.79812581 -72.48036529 72.33232123 -68.51953125 68.9921875 C-63.55026741 64.6849249 -58.90907083 60.05975716 -54.27172852 55.40209961 C-52.80792516 53.93290832 -51.33881313 52.46917707 -49.86914062 51.00585938 C-44.27600881 45.45302651 -44.27600881 45.45302651 -39.07421875 39.5390625 C-37.1806171 37.22109437 -35.288939 35.3526405 -33 33.4375 C-27.66934739 28.87406281 -23.03976644 23.9590103 -18.55078125 18.57421875 C-18.03902344 18.05472656 -17.52726562 17.53523438 -17 17 C-16.34 17 -15.68 17 -15 17 C-14.62875 16.1646875 -14.62875 16.1646875 -14.25 15.3125 C-11.6687166 10.53712571 -7.97397826 6.66024314 -4 3 C-3.34 3 -2.68 3 -2 3 C-2 2.34 -2 1.68 -2 1 C-1.34 0.67 -0.68 0.34 0 0 Z " fill="#353D4B" transform="translate(471,31)"/>
<path d="M0 0 C0.34774574 3.18579965 0.30172317 4.58604164 -1.6171875 7.21875 C-2.36226562 7.9715625 -3.10734375 8.724375 -3.875 9.5 C-8.16764132 14.00999025 -11.94582269 18.70843183 -15.63623047 23.70898438 C-17.63298872 26.37783016 -19.19104848 28.12736565 -22 30 C-20.54707727 25.58472926 -18.27647565 22.68628928 -15.25 19.1875 C-8.45973738 11.56219775 -8.45973738 11.56219775 -3 3 C-14.03953126 2.69798513 -25.07807112 2.46740871 -36.12090111 2.32644176 C-41.24957151 2.25875967 -46.37540439 2.16707605 -51.50244141 2.01928711 C-56.45643288 1.87738997 -61.40770746 1.80018069 -66.36357498 1.76659584 C-68.24810185 1.74268513 -70.13248964 1.69598438 -72.01585007 1.62550926 C-81.8475004 0.94829091 -81.8475004 0.94829091 -90.76569557 4.27966881 C-94.24643772 7.7540185 -96.59135443 11.74426822 -99 16 C-99.9610453 17.23722023 -100.95230958 18.45283155 -101.99609375 19.62109375 C-106.63982354 24.97810044 -111.15061035 30.4010705 -115.5 36 C-120.81195654 42.8315603 -126.36451087 49.4342079 -132 56 C-133.00160156 57.17175781 -133.00160156 57.17175781 -134.0234375 58.3671875 C-135.34635125 59.9136923 -136.6725991 61.4573449 -138 63 C-138 57.85650691 -133.95663639 54.0705147 -130.5234375 50.4375 C-129.35297102 49.28756802 -128.1769362 48.14330946 -127 47 C-126.67 46.34 -126.34 45.68 -126 45 C-125.34 45 -124.68 45 -124 45 C-123.73832031 44.42765625 -123.47664062 43.8553125 -123.20703125 43.265625 C-121.91050531 40.83201643 -120.43148658 38.88610347 -118.6875 36.75 C-117.62015625 35.43515625 -117.62015625 35.43515625 -116.53125 34.09375 C-115.6959375 33.0728125 -114.860625 32.051875 -114 31 C-112.44198995 29.08978023 -110.88520071 27.17857707 -109.3293457 25.26660156 C-108.28253327 23.98085128 -107.23433774 22.69622497 -106.18432617 21.41308594 C-105.4182605 20.47384277 -105.4182605 20.47384277 -104.63671875 19.515625 C-103.82824997 18.56153244 -103.82824997 18.56153244 -103.00344849 17.58816528 C-101.45697462 15.59034503 -100.2032871 13.70952854 -98.9238739 11.55227661 C-93.05082877 2.19907142 -93.05082877 2.19907142 -87.95870781 0.19770813 C-82.20060055 -1.03713749 -76.35991898 -0.75566921 -70.5078125 -0.5859375 C-68.62979332 -0.58225571 -66.75175279 -0.58477297 -64.87374878 -0.59317017 C-59.95832073 -0.59869429 -55.04771502 -0.52089182 -50.13336182 -0.42486572 C-45.1281629 -0.34190101 -40.12297014 -0.33839123 -35.1171875 -0.328125 C-26.32814974 -0.29977073 -17.54198156 -0.20330983 -8.75418091 -0.0562439 C-5.83509831 -0.01251117 -2.91925392 0.01196654 0 0 Z " fill="#4D5D68" transform="translate(356,30)"/>
<path d="M0 0 C0.66 0 1.32 0 2 0 C1.6875 1.9375 1.6875 1.9375 1 4 C0.01 4.33 -0.98 4.66 -2 5 C-2.68564918 6.32367194 -3.35021272 7.6583597 -4 9 C-5.62931824 10.61178589 -5.62931824 10.61178589 -7.56323242 12.19873047 C-12.26943227 16.18585491 -16.62532729 20.46357914 -20.98828125 24.8203125 C-21.81329636 25.64199921 -22.63831146 26.46368591 -23.48832703 27.31027222 C-25.21821486 29.03512908 -26.94677888 30.76131455 -28.67407227 32.48876953 C-31.3170179 35.12951414 -33.96787906 37.762139 -36.61914062 40.39453125 C-38.30517649 42.0776353 -39.99074005 43.76121264 -41.67578125 45.4453125 C-42.86171623 46.62046921 -42.86171623 46.62046921 -44.0716095 47.81936646 C-44.80634995 48.55718353 -45.54109039 49.29500061 -46.2980957 50.05517578 C-46.94237015 50.69802521 -47.58664459 51.34087463 -48.2504425 52.00320435 C-50.16882568 54.19268322 -51.54390896 56.48523441 -53 59 C-54.16093356 60.33459847 -55.36866705 61.6297696 -56.6171875 62.8828125 C-57.65166016 63.92115234 -57.65166016 63.92115234 -58.70703125 64.98046875 C-59.42246094 65.68816406 -60.13789063 66.39585937 -60.875 67.125 C-61.58269531 67.84042969 -62.29039062 68.55585938 -63.01953125 69.29296875 C-71.68881441 77.92996407 -71.68881441 77.92996407 -76.0625 78.0625 C-79.04624642 76.42625196 -80.29143984 73.86794027 -82 71 C-81.443125 71.28875 -80.88625 71.5775 -80.3125 71.875 C-77.91505355 73.0413253 -75.48403061 74.0339881 -73 75 C-72.59007812 74.4946875 -72.18015625 73.989375 -71.7578125 73.46875 C-70.94957031 72.49421875 -70.94957031 72.49421875 -70.125 71.5 C-69.59132813 70.8503125 -69.05765625 70.200625 -68.5078125 69.53125 C-68.01023437 69.0259375 -67.51265625 68.520625 -67 68 C-66.34 68 -65.68 68 -65 68 C-65 67.34 -65 66.68 -65 66 C-63.625 64.375 -63.625 64.375 -62 63 C-61.34 63 -60.68 63 -60 63 C-60 62.34 -60 61.68 -60 61 C-59.34 61 -58.68 61 -58 61 C-57.67 60.01 -57.34 59.02 -57 58 C-56.34 58 -55.68 58 -55 58 C-54.75099945 57.42535507 -54.5019989 56.85071014 -54.24545288 56.25865173 C-52.8162888 53.66683636 -51.17641021 51.94319055 -49.07275391 49.86157227 C-48.2649649 49.05716202 -47.4571759 48.25275177 -46.62490845 47.42396545 C-45.75095428 46.56347092 -44.87700012 45.70297638 -43.9765625 44.81640625 C-42.62998062 43.47762672 -42.62998062 43.47762672 -41.25619507 42.11180115 C-38.87083938 39.74124597 -36.48153375 37.37483426 -34.08978271 35.01074219 C-30.72724827 31.68617794 -27.36981318 28.35649499 -24.01522827 25.02391052 C-22.23057946 23.25147822 -20.44326385 21.48172609 -18.65298462 19.71498108 C-17.43184464 18.50363747 -17.43184464 18.50363747 -16.18603516 17.26782227 C-15.47258942 16.56262955 -14.75914368 15.85743683 -14.02407837 15.13087463 C-11.8981369 12.96525837 -11.8981369 12.96525837 -9.8633728 10.23326111 C-9.24845978 9.49628494 -8.63354675 8.75930878 -8 8 C-7.34 8 -6.68 8 -6 8 C-5.731875 7.360625 -5.46375 6.72125 -5.1875 6.0625 C-4 4 -4 4 -1 3 C-0.67 2.01 -0.34 1.02 0 0 Z " fill="#38414F" transform="translate(329,175)"/>
<path d="M0 0 C0.495 1.485 0.495 1.485 1 3 C0.5875 3.38929688 0.175 3.77859375 -0.25 4.1796875 C-6.15719632 9.90228394 -11.17024596 16.24442995 -16.11328125 22.8046875 C-16.73589844 23.52914063 -17.35851562 24.25359375 -18 25 C-18.66 25 -19.32 25 -20 25 C-20.268125 25.57492187 -20.53625 26.14984375 -20.8125 26.7421875 C-25.71942577 36.07180295 -34.22253407 43.38619649 -41.65234375 50.66650391 C-45.34649736 54.29401849 -48.88286625 57.849043 -52 62 C-53.625 63.8125 -53.625 63.8125 -55 65 C-55.66 65 -56.32 65 -57 65 C-57.4021875 65.86625 -57.4021875 65.86625 -57.8125 66.75 C-59 69 -59 69 -60.5625 70.875 C-62.36384129 73.53785234 -62.64072241 75.83835725 -63 79 C-63.66 79 -64.32 79 -65 79 C-65.18058232 73.40194809 -63.6729068 69.4725069 -59.890625 65.39453125 C-56.88173894 62.35695118 -53.75085447 59.45582121 -50.60253906 56.56396484 C-48.78760447 54.85813757 -48.78760447 54.85813757 -46.6796875 52.08203125 C-45.84824219 51.05142578 -45.84824219 51.05142578 -45 50 C-44.34 50 -43.68 50 -43 50 C-42.731875 49.360625 -42.46375 48.72125 -42.1875 48.0625 C-41 46 -41 46 -38 45 C-37.67 44.34 -37.34 43.68 -37 43 C-36 41 -36 41 -33 40 C-32.31328134 38.67688258 -31.65081433 37.3411424 -31 36 C-29.54098224 34.27694358 -28.03680019 32.59155605 -26.5 30.9375 C-24.09463269 28.34079665 -21.96595796 25.94893694 -20 23 C-19.34 23 -18.68 23 -18 23 C-17.690625 22.38125 -17.38125 21.7625 -17.0625 21.125 C-16.375 19.75 -15.6875 18.375 -15 17 C-14.34 17 -13.68 17 -13 17 C-12.7628125 16.44441406 -12.525625 15.88882812 -12.28125 15.31640625 C-10.6992626 12.45628879 -8.72337285 10.33051331 -6.5 7.9375 C-4.09463269 5.34079665 -1.96595796 2.94893694 0 0 Z " fill="#343C49" transform="translate(178,246)"/>
<path d="M0 0 C0 4.12953807 -2.21548081 5.69516984 -4.9375 8.5 C-9.3857463 13.21158705 -13.56364354 18.05101788 -17.6328125 23.09765625 C-21.80005328 28.20699602 -26.12598741 33.18089227 -30.4296875 38.17529297 C-32.54582513 40.63425016 -34.6544524 43.09959751 -36.76342773 45.56469727 C-41.47614413 51.07215071 -46.20519564 56.56363731 -51 62 C-51 58.04217714 -49.75270073 57.33275838 -47.0625 54.5 C-42.99448948 50.11467196 -39.17404061 45.60327461 -35.4140625 40.953125 C-32.18141107 36.99861937 -28.86892919 33.1139547 -25.54150391 29.23901367 C-23.00565901 26.30222124 -23.00565901 26.30222124 -21 23 C-20.34 23 -19.68 23 -19 23 C-18.7628125 22.45859375 -18.525625 21.9171875 -18.28125 21.359375 C-16.65652243 18.36749863 -14.6498123 15.88840601 -12.5 13.25 C-11.7059375 12.26515625 -10.911875 11.2803125 -10.09375 10.265625 C-9.4028125 9.51796875 -8.711875 8.7703125 -8 8 C-7.34 8 -6.68 8 -6 8 C-5.7525 7.4225 -5.505 6.845 -5.25 6.25 C-3.83316683 3.6997003 -2.12372463 1.98214299 0 0 Z " fill="#333C4A" transform="translate(169,149)"/>
<path d="M0 0 C0.66 0.33 1.32 0.66 2 1 C-3.37856703 7.93907971 -8.78750995 14.83147058 -14.5 21.5 C-18.28194056 25.91574024 -21.93253842 30.4092786 -25.5 35 C-30.8120917 41.83146211 -36.36450431 48.43420025 -42 55 C-43.00160156 56.17175781 -43.00160156 56.17175781 -44.0234375 57.3671875 C-45.34635125 58.9136923 -46.6725991 60.4573449 -48 62 C-48 56.85650691 -43.95663639 53.0705147 -40.5234375 49.4375 C-39.35297102 48.28756802 -38.1769362 47.14330946 -37 46 C-36.67 45.34 -36.34 44.68 -36 44 C-35.34 44 -34.68 44 -34 44 C-33.73832031 43.42765625 -33.47664062 42.8553125 -33.20703125 42.265625 C-31.91050531 39.83201643 -30.43148658 37.88610347 -28.6875 35.75 C-27.62015625 34.43515625 -27.62015625 34.43515625 -26.53125 33.09375 C-25.6959375 32.0728125 -24.860625 31.051875 -24 30 C-21.89412175 27.41805884 -19.79053424 24.83425796 -17.6875 22.25 C-17.13707031 21.57420898 -16.58664063 20.89841797 -16.01953125 20.20214844 C-10.5975871 13.53214605 -5.28518917 6.77859934 0 0 Z " fill="#353C49" transform="translate(266,31)"/>
<path d="M0 0 C0.33 0 0.66 0 1 0 C1.00808685 1.31100677 1.01617371 2.62201355 1.02450562 3.9727478 C1.1018597 16.30434298 1.18957146 28.63582636 1.28752708 40.96727562 C1.33755605 47.30758841 1.38388537 53.64788399 1.421875 59.98828125 C1.45864455 66.10265319 1.50498148 72.21688346 1.55806351 78.3311348 C1.57665187 80.66838734 1.59174324 83.00567031 1.60334396 85.34296799 C1.62013056 88.60688661 1.64914691 91.87047758 1.68115234 95.13427734 C1.68331253 96.10891434 1.68547272 97.08355133 1.68769836 98.08772278 C1.69886185 98.97395828 1.71002533 99.86019379 1.7215271 100.77328491 C1.72982324 101.93197869 1.72982324 101.93197869 1.73828697 103.11408043 C1.84040922 105.24254233 1.84040922 105.24254233 4 107 C3.34 107.99 2.68 108.98 2 110 C1.34 110 0.68 110 0 110 C0 73.7 0 37.4 0 0 Z " fill="#4A5C66" transform="translate(113,106)"/>
<path d="M0 0 C0 4.2313414 -2.37531841 6.3615594 -4.9375 9.5 C-5.43749512 10.12366455 -5.93749023 10.7473291 -6.45263672 11.38989258 C-7.96064067 13.26638653 -9.47872968 15.13425289 -11 17 C-11.79792969 17.98355469 -12.59585937 18.96710938 -13.41796875 19.98046875 C-14.87600716 21.76882383 -16.33946172 23.55277832 -17.80859375 25.33203125 C-19.33654453 27.19226366 -20.84839497 29.06578736 -22.34765625 30.94921875 C-26.2607867 35.84226501 -29.96176431 40.25361961 -35 44 C-33.28325304 39.80120923 -30.33412526 36.73452295 -27.375 33.375 C-26.2787509 32.11301799 -25.1837008 30.84999345 -24.08984375 29.5859375 C-23.5572998 28.97073242 -23.02475586 28.35552734 -22.47607422 27.72167969 C-18.19704537 22.73065894 -14.18910582 17.5184796 -10.13671875 12.34375 C-9.63857666 11.70824219 -9.14043457 11.07273438 -8.62719727 10.41796875 C-7.64302327 9.16139945 -6.66038014 7.90362929 -5.67944336 6.64453125 C-3.86554266 4.32461514 -2.08454558 2.08454558 0 0 Z " fill="#333A46" transform="translate(278,128)"/>
<path d="M0 0 C0 3 0 3 -1.48120117 4.85351562 C-2.16158447 5.53091797 -2.84196777 6.20832031 -3.54296875 6.90625 C-4.28740234 7.65003906 -5.03183594 8.39382812 -5.79882812 9.16015625 C-6.58708984 9.93230469 -7.37535156 10.70445312 -8.1875 11.5 C-8.95642578 12.27214844 -9.72535156 13.04429687 -10.51757812 13.83984375 C-19.69452061 22.93013699 -19.69452061 22.93013699 -24.0625 23.0625 C-27.04624642 21.42625196 -28.29143984 18.86794027 -30 16 C-29.1646875 16.433125 -29.1646875 16.433125 -28.3125 16.875 C-25.91505355 18.0413253 -23.48403061 19.0339881 -21 20 C-20.59007812 19.4946875 -20.18015625 18.989375 -19.7578125 18.46875 C-19.21898437 17.8190625 -18.68015625 17.169375 -18.125 16.5 C-17.59132813 15.8503125 -17.05765625 15.200625 -16.5078125 14.53125 C-16.01023437 14.0259375 -15.51265625 13.520625 -15 13 C-14.34 13 -13.68 13 -13 13 C-13 12.34 -13 11.68 -13 11 C-11.625 9.375 -11.625 9.375 -10 8 C-9.34 8 -8.68 8 -8 8 C-8 7.34 -8 6.68 -8 6 C-7.34 6 -6.68 6 -6 6 C-5.67 5.01 -5.34 4.02 -5 3 C-2.4375 1.3125 -2.4375 1.3125 0 0 Z " fill="#4C606B" transform="translate(277,230)"/>
<path d="M0 0 C0.99 0.33 1.98 0.66 3 1 C3 1.66 3 2.32 3 3 C2.29335205 3.42192627 1.5867041 3.84385254 0.85864258 4.27856445 C-2.48062143 6.28942366 -5.0317592 8.78047662 -7.73828125 11.54296875 C-8.26391159 12.07142899 -8.78954193 12.59988922 -9.33110046 13.1443634 C-10.99635248 14.82074262 -12.65448492 16.50396589 -14.3125 18.1875 C-15.44549917 19.33053861 -16.57895809 20.47312169 -17.71289062 21.61523438 C-20.48060828 24.40491332 -23.24196548 27.20074873 -26 30 C-26.33 29.01 -26.66 28.02 -27 27 C-26.16855469 26.29423828 -26.16855469 26.29423828 -25.3203125 25.57421875 C-24.59585937 24.95160156 -23.87140625 24.32898438 -23.125 23.6875 C-22.40570313 23.07261719 -21.68640625 22.45773438 -20.9453125 21.82421875 C-18.80820669 19.9587676 -18.80820669 19.9587676 -17 17 C-16.34 17 -15.68 17 -15 17 C-14.7525 16.443125 -14.505 15.88625 -14.25 15.3125 C-11.6687166 10.53712571 -7.97397826 6.66024314 -4 3 C-3.34 3 -2.68 3 -2 3 C-2 2.34 -2 1.68 -2 1 C-1.34 0.67 -0.68 0.34 0 0 Z " fill="#3F4753" transform="translate(471,31)"/>
<path d="M0 0 C0.66 0.33 1.32 0.66 2 1 C0.27522672 3.22379476 -1.45168355 5.44581792 -3.18359375 7.6640625 C-4.57424781 9.45247352 -5.94732461 11.25456503 -7.3125 13.0625 C-7.869375 13.701875 -8.42625 14.34125 -9 15 C-9.66 15 -10.32 15 -11 15 C-11.268125 15.57234375 -11.53625 16.1446875 -11.8125 16.734375 C-13.04132636 19.07884634 -14.42522176 21.12404938 -16 23.25 C-16.515625 23.95640625 -17.03125 24.6628125 -17.5625 25.390625 C-18.036875 25.92171875 -18.51125 26.4528125 -19 27 C-19.66 27 -20.32 27 -21 27 C-21.38285156 27.85851562 -21.38285156 27.85851562 -21.7734375 28.734375 C-23.13087159 31.24173733 -24.71974104 33.1330456 -26.625 35.25 C-27.25664062 35.95640625 -27.88828125 36.6628125 -28.5390625 37.390625 C-29.02117187 37.92171875 -29.50328125 38.4528125 -30 39 C-30 34.99047607 -28.56255087 33.91370053 -26 30.875 C-25.175 29.89273438 -24.35 28.91046875 -23.5 27.8984375 C-20.71896844 24.67417904 -17.8939239 21.49404337 -15.046875 18.328125 C-9.82792744 12.39207014 -4.93126314 6.17518537 0 0 Z " fill="#333D48" transform="translate(211,207)"/>
<path d="M0 0 C2.44921875 1.99609375 2.44921875 1.99609375 4.6875 4.4375 C7.09085486 7.02349322 9.04944161 9.03296107 12 11 C12 11.66 12 12.32 12 13 C7.99598033 11.63692947 5.36564298 9.84380836 2.25 7 C1.47140625 6.29875 0.6928125 5.5975 -0.109375 4.875 C-2 3 -2 3 -3 1 C-6.4339378 2.41659205 -7.98682127 4.01263605 -10.0625 7.0625 C-12.6723869 10.89079563 -12.6723869 10.89079563 -16 12 C-14.60484422 9.01517153 -12.97667625 6.44642111 -11 3.8125 C-10.484375 3.11769531 -9.96875 2.42289063 -9.4375 1.70703125 C-6.52092059 -1.7564068 -4.14916737 -1.09996422 0 0 Z " fill="#35424C" transform="translate(235,233)"/>
<path d="M0 0 C0.66 0.66 1.32 1.32 2 2 C1.443125 2.60585937 0.88625 3.21171875 0.3125 3.8359375 C-3.50384969 8.02618631 -7.24531755 12.23176056 -10.75 16.6875 C-16.24745219 23.67105207 -22.15022562 30.31199575 -28 37 C-28 32.99047607 -26.56255087 31.91370053 -24 28.875 C-23.17242187 27.88886719 -22.34484375 26.90273437 -21.4921875 25.88671875 C-19.39693178 23.45976894 -17.27537708 21.0654066 -15.125 18.6875 C-9.75318701 12.72848478 -4.90716283 6.34142549 0 0 Z " fill="#373E49" transform="translate(199,112)"/>
<path d="M0 0 C0.66 0 1.32 0 2 0 C-0.03690503 4.28411697 -2.707487 7.93284398 -5.5 11.75 C-5.99886719 12.44738281 -6.49773437 13.14476563 -7.01171875 13.86328125 C-7.73294922 14.85134766 -7.73294922 14.85134766 -8.46875 15.859375 C-8.90638672 16.46233398 -9.34402344 17.06529297 -9.79492188 17.68652344 C-10.19259766 18.1199707 -10.59027344 18.55341797 -11 19 C-11.66 19 -12.32 19 -13 19 C-13.2371875 19.53109375 -13.474375 20.0621875 -13.71875 20.609375 C-15.37378384 23.69742595 -17.40548128 26.4528472 -19.5 29.25 C-19.90347656 29.80429688 -20.30695313 30.35859375 -20.72265625 30.9296875 C-21.76450171 32.32569165 -22.87745412 33.66802392 -24 35 C-24.66 35 -25.32 35 -26 35 C-24.35216793 31.27446663 -21.98997382 28.19084475 -19.5 25 C-18.84330322 24.15103149 -18.84330322 24.15103149 -18.17333984 23.28491211 C-14.31722041 18.33303844 -10.30189154 13.52615638 -6.2265625 8.75390625 C-3.90272561 5.97904885 -3.90272561 5.97904885 -1.8359375 2.65234375 C-1.23007812 1.77707031 -0.62421875 0.90179688 0 0 Z " fill="#363D49" transform="translate(331,61)"/>
<path d="M0 0 C4.46086815 2.08637486 8.12337317 4.99774209 12 8 C12.9075 8.70125 13.815 9.4025 14.75 10.125 C16.97239201 11.97699334 18.98913037 13.92210138 21 16 C21.5775 16.53625 22.155 17.0725 22.75 17.625 C24 19 24 19 24 21 C21.09878912 19.67027835 18.87255997 18.1905198 16.5 16.0625 C15.819375 15.45277344 15.13875 14.84304688 14.4375 14.21484375 C13.633125 13.48394531 12.82875 12.75304687 12 12 C11.49210938 11.54254395 10.98421875 11.08508789 10.4609375 10.61376953 C8.80392785 9.12118472 7.15125481 7.62394751 5.5 6.125 C4.68885742 5.39228882 4.68885742 5.39228882 3.86132812 4.64477539 C2.5548299 3.45072513 1.27468887 2.22795028 0 1 C0 0.67 0 0.34 0 0 Z " fill="#39434F" transform="translate(187,300)"/>
<path d="M0 0 C1.65 0 3.3 0 5 0 C5.34774574 3.18579965 5.30172317 4.58604164 3.3828125 7.21875 C2.63773437 7.9715625 1.89265625 8.724375 1.125 9.5 C-3.16764132 14.00999025 -6.94582269 18.70843183 -10.63623047 23.70898438 C-12.63298872 26.37783016 -14.19104848 28.12736565 -17 30 C-15.54707727 25.58472926 -13.27647565 22.68628928 -10.25 19.1875 C-3.45973738 11.56219775 -3.45973738 11.56219775 2 3 C2.66 3 3.32 3 4 3 C4 2.34 4 1.68 4 1 C2.68 0.67 1.36 0.34 0 0 Z " fill="#313849" transform="translate(351,30)"/>
<path d="M0 0 C0.66 0.33 1.32 0.66 2 1 C0.5489926 2.83913695 -0.91101659 4.6711753 -2.375 6.5 C-3.18710938 7.5209375 -3.99921875 8.541875 -4.8359375 9.59375 C-5.55007812 10.3878125 -6.26421875 11.181875 -7 12 C-7.66 12 -8.32 12 -9 12 C-9.24621094 12.56460938 -9.49242187 13.12921875 -9.74609375 13.7109375 C-11.21406905 16.39079272 -12.9935669 18.37958803 -15.0625 20.625 C-17.85780458 23.58789167 -17.85780458 23.58789167 -20 27 C-20.66 27 -21.32 27 -22 27 C-20.69510312 24.17330236 -19.26105789 21.94427973 -17.20703125 19.609375 C-16.66199951 18.98554932 -16.11696777 18.36172363 -15.55541992 17.71899414 C-14.98025635 17.06922607 -14.40509277 16.41945801 -13.8125 15.75 C-13.22895752 15.08411865 -12.64541504 14.4182373 -12.04418945 13.73217773 C-10.88964238 12.41542554 -9.73335746 11.10019474 -8.57519531 9.78662109 C-6.60495484 7.55193111 -4.64617928 5.30732378 -2.6875 3.0625 C-1.79206669 2.04131576 -0.89643451 1.02030546 0 0 Z " fill="#313846" transform="translate(241,173)"/>
<path d="M0 0 C0 3 0 3 -2.23046875 5.5234375 C-3.20865735 6.48166307 -4.19470881 7.43191209 -5.1875 8.375 C-5.91163086 9.07882813 -5.91163086 9.07882813 -6.65039062 9.796875 C-7.61999032 10.7391437 -8.59224494 11.6786882 -9.56713867 12.61547852 C-11.74006826 14.71510089 -13.86887885 16.85807925 -16 19 C-17.66666667 20.66666667 -19.33333333 22.33333333 -21 24 C-21 19.37598143 -18.12331668 17.20952287 -15 14 C-13.04574397 12.21550763 -11.05178041 10.49089145 -9.03515625 8.77734375 C-5.86548828 6.00920762 -2.93277234 3.01525656 0 0 Z " fill="#303645" transform="translate(414,89)"/>
<path d="M0 0 C0.99 0.33 1.98 0.66 3 1 C-2.61 6.61 -8.22 12.22 -14 18 C-14 14.06830895 -12.60580385 12.83572772 -10 10 C-9.34 10 -8.68 10 -8 10 C-7.67 9.01 -7.34 8.02 -7 7 C-6.34 7 -5.68 7 -5 7 C-5 6.34 -5 5.68 -5 5 C-3.37446717 3.29319053 -1.70884005 1.62339805 0 0 Z " fill="#3A4550" transform="translate(390,113)"/>
<path d="M0 0 C0.33 0.66 0.66 1.32 1 2 C0.34644531 2.8353125 0.34644531 2.8353125 -0.3203125 3.6875 C-0.91585938 4.450625 -1.51140625 5.21375 -2.125 6 C-3.08019531 7.22203125 -3.08019531 7.22203125 -4.0546875 8.46875 C-6.32171797 11.41862097 -8.49431431 14.43015284 -10.640625 17.46875 C-12 19 -12 19 -15 20 C-13.287474 15.8512019 -10.41116967 12.7812078 -7.5 9.4375 C-3.55102588 4.87578359 -3.55102588 4.87578359 0 0 Z " fill="#2E3946" transform="translate(294,108)"/>
<path d="M0 0 C5.88502111 1.32412975 9.96089209 4.6533458 14 9 C14 9.66 14 10.32 14 11 C9.96407129 9.63079505 7.32473622 7.80419512 4.1875 4.9375 C3.39730469 4.22464844 2.60710937 3.51179687 1.79296875 2.77734375 C1.20128906 2.19082031 0.60960937 1.60429687 0 1 C0 0.67 0 0.34 0 0 Z " fill="#3E4A55" transform="translate(233,235)"/>
<path d="M0 0 C0.33 0.99 0.66 1.98 1 3 C-0.43359375 5.04296875 -0.43359375 5.04296875 -2.4375 7.1875 C-3.09621094 7.90292969 -3.75492187 8.61835938 -4.43359375 9.35546875 C-5.20896484 10.16951172 -5.20896484 10.16951172 -6 11 C-7.32 10.67 -8.64 10.34 -10 10 C-8.37660195 8.29115995 -6.70680947 6.62553283 -5 5 C-4.34 5 -3.68 5 -3 5 C-2.690625 4.360625 -2.38125 3.72125 -2.0625 3.0625 C-1 1 -1 1 0 0 Z " fill="#3F4B58" transform="translate(268,343)"/>
<path d="M0 0 C0.556875 0.28875 1.11375 0.5775 1.6875 0.875 C4.08494645 2.0413253 6.51596939 3.0339881 9 4 C9.99 2.68 10.98 1.36 12 0 C12.66 0.33 13.32 0.66 14 1 C10.7035461 5.59148936 10.7035461 5.59148936 8.0625 7.125 C6 7 6 7 3.3125 4.6875 C1 2 1 2 0 0 Z " fill="#353E4F" transform="translate(247,246)"/>
<path d="M0 0 C0.99 0.33 1.98 0.66 3 1 C-0.96 4.96 -4.92 8.92 -9 13 C-9.33 12.01 -9.66 11.02 -10 10 C-9.44570313 9.52949219 -8.89140625 9.05898438 -8.3203125 8.57421875 C-7.59585937 7.95160156 -6.87140625 7.32898437 -6.125 6.6875 C-5.40570313 6.07261719 -4.68640625 5.45773438 -3.9453125 4.82421875 C-1.80820669 2.9587676 -1.80820669 2.9587676 0 0 Z " fill="#3F4B56" transform="translate(454,48)"/>
<path d="M0 0 C0 3.58912412 -0.66436554 4.10857029 -3 6.6875 C-3.556875 7.31011719 -4.11375 7.93273437 -4.6875 8.57421875 C-5.120625 9.04472656 -5.55375 9.51523437 -6 10 C-6.33 9.34 -6.66 8.68 -7 8 C-4.83201268 2.5229794 -4.83201268 2.5229794 -1.8125 0.625 C-1.214375 0.41875 -0.61625 0.2125 0 0 Z " fill="#46535D" transform="translate(209,257)"/>
<path d="M0 0 C0.33 0.99 0.66 1.98 1 3 C-2.21311475 8.73770492 -2.21311475 8.73770492 -6 10 C-4.6302836 6.00499382 -2.74277578 3.19990508 0 0 Z " fill="#394050" transform="translate(202,262)"/>
<path d="M0 0 C0.99 0.33 1.98 0.66 3 1 C3 1.66 3 2.32 3 3 C0.09451118 5.04169485 -1.40142046 6 -5 6 C-4.67 5.01 -4.34 4.02 -4 3 C-3.34 3 -2.68 3 -2 3 C-2 2.34 -2 1.68 -2 1 C-1.34 0.67 -0.68 0.34 0 0 Z " fill="#38404B" transform="translate(471,31)"/>
<path d="M0 0 C0 3.77910478 -0.99703962 4.46106101 -3.5 7.1875 C-4.1496875 7.90292969 -4.799375 8.61835938 -5.46875 9.35546875 C-5.9740625 9.89816406 -6.479375 10.44085938 -7 11 C-7.66 10.34 -8.32 9.68 -9 9 C-8.01 8.67 -7.02 8.34 -6 8 C-5.31513275 6.67592331 -4.65129797 5.34090759 -4 4 C-2.70529025 2.62913085 -1.37849103 1.28659163 0 0 Z " fill="#3A434F" transform="translate(169,149)"/>
<path d="M0 0 C0.66 0.33 1.32 0.66 2 1 C-0.64 3.64 -3.28 6.28 -6 9 C-6 5.06368636 -4.57142871 3.87394974 -2 1 C-1.34 0.67 -0.68 0.34 0 0 Z " fill="#363E4C" transform="translate(292,320)"/>
<path d="M0 0 C0.66 0.99 1.32 1.98 2 3 C0.9275 2.62875 -0.145 2.2575 -1.25 1.875 C-4.81629347 0.68508268 -4.81629347 0.68508268 -7.4375 1.875 C-7.953125 2.24625 -8.46875 2.6175 -9 3 C-8.67 2.01 -8.34 1.02 -8 0 C-5.06791253 -1.46604374 -3.11702298 -0.77925574 0 0 Z " fill="#2D3448" transform="translate(235,233)"/>
<path d="M0 0 C0.33 0.66 0.66 1.32 1 2 C0.21654285 3.17219543 -0.57702836 4.33763668 -1.375 5.5 C-1.81585938 6.1496875 -2.25671875 6.799375 -2.7109375 7.46875 C-3.13632812 7.9740625 -3.56171875 8.479375 -4 9 C-4.66 9 -5.32 9 -6 9 C-4.47291037 5.56404834 -2.40072955 2.88087546 0 0 Z " fill="#3A3D49" transform="translate(294,108)"/>
</svg>
