<?xml version="1.0" standalone="no"?>
<!DOCTYPE svg PUBLIC "-//W3C//DTD SVG 20010904//EN"
 "http://www.w3.org/TR/2001/REC-SVG-20010904/DTD/svg10.dtd">
<svg version="1.0" xmlns="http://www.w3.org/2000/svg"
 width="512.000000pt" height="512.000000pt" viewBox="0 0 512.000000 512.000000"
 preserveAspectRatio="xMidYMid meet">

<g transform="translate(0.000000,512.000000) scale(0.100000,-0.100000)"
fill="#000000" stroke="none">
<path d="M978 4794 c-2 -2 -140 -4 -306 -6 -167 -1 -307 -5 -312 -8 -7 -4 -9
-773 -8 -2111 l3 -2104 340 -3 c187 -2 359 0 383 3 l42 6 0 677 c0 666 0 678
21 711 11 18 85 99 163 180 148 151 202 211 296 325 61 74 70 85 151 177 31
35 80 93 109 129 30 36 70 83 89 105 20 22 56 65 81 94 25 30 50 59 55 65 6 6
30 36 55 66 25 30 49 60 55 66 5 6 33 37 60 69 28 32 55 63 60 69 6 6 34 39
63 74 l52 63 0 504 0 504 -25 -23 c-14 -13 -25 -26 -25 -30 0 -4 -15 -22 -32
-39 -33 -32 -113 -124 -152 -175 -11 -15 -23 -29 -26 -32 -5 -4 -126 -146
-195 -229 -61 -72 -213 -248 -227 -263 -10 -10 -18 -21 -18 -25 0 -5 -15 -24
-33 -43 -43 -45 -145 -163 -279 -320 -58 -69 -114 -134 -125 -145 -10 -11 -45
-53 -77 -92 -32 -40 -61 -73 -65 -73 -30 0 -31 30 -31 916 0 785 -2 893 -15
904 -14 11 -119 23 -127 14z"/>
<path d="M2282 2738 c-17 -21 -33 -39 -128 -148 -27 -30 -85 -98 -128 -150
-44 -52 -106 -123 -138 -157 -32 -34 -58 -68 -58 -76 0 -8 32 -44 71 -79 39
-34 94 -84 122 -110 28 -27 53 -48 56 -48 3 0 33 -26 67 -58 121 -115 329
-298 302 -266 -17 19 -18 59 -18 513 l0 493 -52 54 c-28 30 -58 54 -65 54 -7
0 -21 -10 -31 -22z"/>
</g>
</svg>
